<svg id="visual" viewBox="0 0 1920 1080" width="1920" height="1080" xmlns="http://www.w3.org/2000/svg" xmlns:xlink="http://www.w3.org/1999/xlink" version="1.1"><path d="M1136 1080L1171.8 1035C1207.7 990 1279.3 900 1321.5 810C1363.7 720 1376.3 630 1430.5 540C1484.7 450 1580.3 360 1546.8 270C1513.3 180 1350.7 90 1269.3 45L1188 0L1920 0L1920 45C1920 90 1920 180 1920 270C1920 360 1920 450 1920 540C1920 630 1920 720 1920 810C1920 900 1920 990 1920 1035L1920 1080Z" fill="#0066FF" stroke-linecap="round" stroke-linejoin="miter"></path></svg>